<svg width="128" height="128" viewBox="0 0 128 128" fill="none" xmlns="http://www.w3.org/2000/svg">
<rect width="128" height="128" fill="#EDEDFF"/>
<path fill-rule="evenodd" clip-rule="evenodd" d="M35.2209 39.8574C35.2209 27.1346 45.5348 16.8208 58.2575 16.8208H69.7419C82.4647 16.8208 92.7785 27.1346 92.7785 39.8574L92.7789 88.1427C92.7789 100.865 82.4651 111.179 69.7423 111.179H58.2579C45.5352 111.179 35.2213 100.865 35.2213 88.1427L35.2209 39.8574ZM58.2575 32.1785C54.0166 32.1785 50.5787 35.6165 50.5787 39.8574L50.5791 88.1427C50.5791 92.3836 54.017 95.8216 58.2579 95.8216H69.7423C73.9832 95.8216 77.4212 92.3836 77.4212 88.1427L77.4208 39.8574C77.4208 35.6165 73.9829 32.1785 69.7419 32.1785H58.2575Z" fill="#6B36FF"/>
<path d="M92.7782 39.8572C92.7782 35.3286 91.4715 31.1052 89.2145 27.5435L77.4042 39.3537C77.415 39.5202 77.4205 39.688 77.4205 39.8572L77.4208 88.1425C77.4208 92.3834 73.9829 95.8214 69.742 95.8214H58.2576C54.0167 95.8214 50.5787 92.3834 50.5787 88.1425L50.5786 76.5829L35.4862 91.6493C37.1752 102.708 46.7271 111.179 58.2576 111.179H69.742C82.4647 111.179 92.7786 100.865 92.7786 88.1425L92.7782 39.8572Z" fill="url(#paint0_linear_29_2658)"/>
<path d="M77.4209 50.8156L92.4284 35.834C90.5253 25.0294 81.0922 16.8208 69.7419 16.8208H58.2575C45.5348 16.8208 35.2209 27.1346 35.2209 39.8574L35.2213 88.1427C35.2213 92.6712 36.528 96.8945 38.7849 100.456L50.5953 88.6457C50.5845 88.4794 50.5791 88.3117 50.5791 88.1427L50.5787 39.8574C50.5787 35.6165 54.0166 32.1785 58.2575 32.1785H69.7419C73.9829 32.1785 77.4208 35.6165 77.4208 39.8574L77.4209 50.8156Z" fill="url(#paint1_linear_29_2658)"/>
<path d="M38.7856 100.456C36.5287 96.8944 35.222 92.671 35.222 88.1425L35.222 85.778C35.2219 83.0625 36.3006 80.4583 38.2207 78.5382L89.2155 27.5435C91.4724 31.1052 92.7792 35.3286 92.7792 39.8572L92.7792 42.2214C92.7792 44.9368 91.7005 47.5411 89.7804 49.4612L38.7856 100.456Z" fill="#6B36FF"/>
<defs>
<linearGradient id="paint0_linear_29_2658" x1="53.9123" y1="91.6785" x2="90.91" y2="54.0536" gradientUnits="userSpaceOnUse">
<stop stop-color="#6B36FF"/>
<stop offset="1" stop-color="#3C12B2"/>
</linearGradient>
<linearGradient id="paint1_linear_29_2658" x1="38.5488" y1="77.8826" x2="77.4277" y2="39.1603" gradientUnits="userSpaceOnUse">
<stop stop-color="#3C12B3"/>
<stop offset="1" stop-color="#6B36FF"/>
</linearGradient>
</defs>
</svg>
