<svg width="128" height="128" viewBox="0 0 128 128" fill="none" xmlns="http://www.w3.org/2000/svg">
<rect width="128" height="128" fill="#212128"/>
<path fill-rule="evenodd" clip-rule="evenodd" d="M35.2209 39.8574C35.2209 27.1346 45.5347 16.8208 58.2575 16.8208H69.7419C82.4646 16.8208 92.7785 27.1346 92.7785 39.8574L92.7788 88.1427C92.7788 100.865 82.465 111.179 69.7422 111.179H58.2578C45.5351 111.179 35.2212 100.865 35.2212 88.1427L35.2209 39.8574ZM58.2575 32.1785C54.0165 32.1785 50.5786 35.6165 50.5786 39.8574L50.579 88.1427C50.579 92.3836 54.0169 95.8216 58.2578 95.8216H69.7422C73.9832 95.8216 77.4211 92.3836 77.4211 88.1427L77.4207 39.8574C77.4207 35.6165 73.9828 32.1785 69.7419 32.1785H58.2575Z" fill="#6B36FF"/>
<path d="M92.7781 39.8572C92.7781 35.3286 91.4714 31.1052 89.2144 27.5435L77.4041 39.3537C77.4149 39.5202 77.4204 39.688 77.4204 39.8572L77.4207 88.1425C77.4207 92.3834 73.9828 95.8214 69.7419 95.8214H58.2575C54.0166 95.8214 50.5786 92.3834 50.5786 88.1425L50.5785 76.5829L35.4861 91.6493C37.1751 102.708 46.727 111.179 58.2575 111.179H69.7419C82.4646 111.179 92.7785 100.865 92.7785 88.1425L92.7781 39.8572Z" fill="url(#paint0_linear_29_2651)"/>
<path d="M77.4208 50.8156L92.4283 35.834C90.5252 25.0294 81.0921 16.8208 69.7418 16.8208H58.2575C45.5347 16.8208 35.2209 27.1346 35.2209 39.8574L35.2212 88.1427C35.2212 92.6712 36.5279 96.8945 38.7848 100.456L50.5952 88.6457C50.5844 88.4794 50.579 88.3117 50.579 88.1427L50.5786 39.8574C50.5786 35.6165 54.0165 32.1785 58.2575 32.1785H69.7418C73.9828 32.1785 77.4207 35.6165 77.4207 39.8574L77.4208 50.8156Z" fill="url(#paint1_linear_29_2651)"/>
<path d="M38.7855 100.456C36.5286 96.8944 35.2219 92.671 35.2219 88.1425L35.2219 85.778C35.2218 83.0625 36.3005 80.4583 38.2206 78.5382L89.2154 27.5435C91.4723 31.1052 92.7791 35.3286 92.7791 39.8572L92.7791 42.2214C92.7791 44.9368 91.7004 47.5411 89.7803 49.4612L38.7855 100.456Z" fill="#6B36FF"/>
<defs>
<linearGradient id="paint0_linear_29_2651" x1="53.9122" y1="91.6785" x2="90.9099" y2="54.0536" gradientUnits="userSpaceOnUse">
<stop stop-color="#6B36FF"/>
<stop offset="1" stop-color="#3C12B2"/>
</linearGradient>
<linearGradient id="paint1_linear_29_2651" x1="38.5487" y1="77.8826" x2="77.4276" y2="39.1603" gradientUnits="userSpaceOnUse">
<stop stop-color="#3C12B3"/>
<stop offset="1" stop-color="#6B36FF"/>
</linearGradient>
</defs>
</svg>
