<?xml version="1.0" encoding="UTF-8" standalone="no"?>
<svg
   width="128"
   height="128"
   viewBox="0 0 128 128"
   fill="none"
   version="1.1"
   id="svg28"
   sodipodi:docname="icon_trans.svg"
   inkscape:version="1.1 (c4e8f9e, 2021-05-24)"
   xmlns:inkscape="http://www.inkscape.org/namespaces/inkscape"
   xmlns:sodipodi="http://sodipodi.sourceforge.net/DTD/sodipodi-0.dtd"
   xmlns="http://www.w3.org/2000/svg"
   xmlns:svg="http://www.w3.org/2000/svg">
  <sodipodi:namedview
     id="namedview30"
     pagecolor="#ffffff"
     bordercolor="#666666"
     borderopacity="1.0"
     inkscape:pageshadow="2"
     inkscape:pageopacity="0.0"
     inkscape:pagecheckerboard="0"
     showgrid="false"
     inkscape:zoom="1.8395943"
     inkscape:cx="-104.37084"
     inkscape:cy="82.355117"
     inkscape:window-width="1312"
     inkscape:window-height="847"
     inkscape:window-x="69"
     inkscape:window-y="96"
     inkscape:window-maximized="0"
     inkscape:current-layer="svg28" />
  <path
     fill-rule="evenodd"
     clip-rule="evenodd"
     d="M35.0806 39.7395C35.0806 26.9547 45.4447 16.5906 58.2295 16.5906H69.7699C82.5547 16.5906 92.9188 26.9547 92.9188 39.7395L92.9192 88.2602C92.9192 101.045 82.555 111.409 69.7702 111.409H58.2299C45.4451 111.409 35.0809 101.045 35.0809 88.2602L35.0806 39.7395ZM58.2295 32.0232C53.9679 32.0232 50.5132 35.4779 50.5132 39.7395L50.5136 88.2602C50.5136 92.5218 53.9683 95.9765 58.2299 95.9765H69.7702C74.0318 95.9765 77.4865 92.5218 77.4865 88.2602L77.4862 39.7395C77.4862 35.4779 74.0315 32.0232 69.7699 32.0232H58.2295Z"
     fill="#6B36FF"
     id="path4"
     inkscape:export-filename="/Users/sergejilin/[ dev 0 ps ]/fttm/data/icons/path4.png"
     inkscape:export-xdpi="96"
     inkscape:export-ydpi="96" />
  <path
     d="M92.9185 39.7395C92.9185 35.1888 91.6054 30.9448 89.3374 27.3657L77.4696 39.2335C77.4804 39.4008 77.4859 39.5695 77.4859 39.7395L77.4863 88.2602C77.4863 92.5218 74.0316 95.9765 69.77 95.9765H58.2296C53.968 95.9765 50.5133 92.5218 50.5133 88.2602L50.5132 76.6443L35.3472 91.7841C37.0444 102.896 46.6429 111.409 58.2296 111.409H69.77C82.5547 111.409 92.9189 101.045 92.9189 88.2602L92.9185 39.7395Z"
     fill="url(#paint0_angular_25_3122)"
     id="path6"
     inkscape:export-filename="/Users/sergejilin/[ dev 0 ps ]/fttm/data/icons/path4.png"
     inkscape:export-xdpi="96"
     inkscape:export-ydpi="96" />
  <path
     d="M 77.487,50.7512 92.5677,35.6965 C 90.6553,24.8392 81.1763,16.5906 69.7707,16.5906 H 58.2303 c -12.7848,0 -23.1489,10.3641 -23.1489,23.1489 l 3e-4,48.5207 c 0,4.5505 1.3131,8.7944 3.5809,12.3738 L 50.5306,88.7657 C 50.5198,88.5986 50.5144,88.43 50.5144,88.2602 l -4e-4,-48.5207 c 0,-4.2616 3.4547,-7.7163 7.7163,-7.7163 h 11.5404 c 4.2616,0 7.7163,3.4547 7.7163,7.7163 z"
     fill="url(#paint1_angular_25_3122)"
     id="path8"
     style="fill:url(#paint1_angular_25_3122)"
     inkscape:export-filename="/Users/sergejilin/[ dev 0 ps ]/fttm/data/icons/path4.png"
     inkscape:export-xdpi="96"
     inkscape:export-ydpi="96" />
  <path
     d="M38.6626 100.634C36.3947 97.0547 35.0816 92.8108 35.0816 88.2602L35.0816 85.8841C35.0816 83.1555 36.1655 80.5385 38.095 78.6091L89.3383 27.3657C91.6063 30.9448 92.9194 35.1888 92.9194 39.7395L92.9194 42.1152C92.9195 44.8439 91.8355 47.4608 89.906 49.3903L38.6626 100.634Z"
     fill="#6B36FF"
     id="path10"
     inkscape:export-filename="/Users/sergejilin/[ dev 0 ps ]/fttm/data/icons/path4.png"
     inkscape:export-xdpi="96"
     inkscape:export-ydpi="96" />
  <defs
     id="defs26">
    <radialGradient
       id="paint0_angular_25_3122"
       cx="0"
       cy="0"
       r="1"
       gradientUnits="userSpaceOnUse"
       gradientTransform="translate(64 69.3874) rotate(-46.5183) scale(42.0263)">
      <stop
         stop-color="#3C12B3"
         id="stop12" />
      <stop
         offset="0.472083"
         stop-color="#6B36FF"
         id="stop14" />
      <stop
         offset="1"
         stop-color="#3C12B2"
         id="stop16" />
    </radialGradient>
    <radialGradient
       id="paint1_angular_25_3122"
       cx="0"
       cy="0"
       r="1"
       gradientUnits="userSpaceOnUse"
       gradientTransform="matrix(-28.918877,28.691634,-28.691634,-28.918877,64.0005,58.6121)">
      <stop
         stop-color="#3C12B3"
         id="stop19" />
      <stop
         offset="0.463021"
         stop-color="#6B36FF"
         id="stop21" />
      <stop
         offset="1"
         stop-color="#6B36FF"
         id="stop23" />
    </radialGradient>
  </defs>
</svg>
