<svg width="128" height="128" viewBox="0 0 128 128" fill="none" xmlns="http://www.w3.org/2000/svg">
<rect width="128" height="128" fill="#ECECF5"/>
<path fill-rule="evenodd" clip-rule="evenodd" d="M35.0806 39.7395C35.0806 26.9547 45.4447 16.5906 58.2295 16.5906H69.7699C82.5547 16.5906 92.9188 26.9547 92.9188 39.7395L92.9192 88.2602C92.9192 101.045 82.555 111.409 69.7702 111.409H58.2299C45.4451 111.409 35.0809 101.045 35.0809 88.2602L35.0806 39.7395ZM58.2295 32.0232C53.9679 32.0232 50.5132 35.4779 50.5132 39.7395L50.5136 88.2602C50.5136 92.5218 53.9683 95.9765 58.2299 95.9765H69.7702C74.0318 95.9765 77.4865 92.5218 77.4865 88.2602L77.4862 39.7395C77.4862 35.4779 74.0315 32.0232 69.7699 32.0232H58.2295Z" fill="#6B36FF"/>
<path d="M92.9185 39.7395C92.9185 35.1888 91.6054 30.9448 89.3374 27.3657L77.4696 39.2335C77.4804 39.4008 77.4859 39.5695 77.4859 39.7395L77.4863 88.2602C77.4863 92.5218 74.0316 95.9765 69.77 95.9765H58.2296C53.968 95.9765 50.5133 92.5218 50.5133 88.2602L50.5132 76.6443L35.3472 91.7841C37.0444 102.896 46.6429 111.409 58.2296 111.409H69.77C82.5547 111.409 92.9189 101.045 92.9189 88.2602L92.9185 39.7395Z" fill="url(#paint0_angular_25_3122)"/>
<path d="M77.4862 50.7512L92.5669 35.6965C90.6545 24.8392 81.1755 16.5906 69.7699 16.5906H58.2295C45.4447 16.5906 35.0806 26.9547 35.0806 39.7395L35.0809 88.2602C35.0809 92.8107 36.394 97.0546 38.6618 100.634L50.5298 88.7657C50.519 88.5986 50.5136 88.43 50.5136 88.2602L50.5132 39.7395C50.5132 35.4779 53.9679 32.0232 58.2295 32.0232H69.7699C74.0315 32.0232 77.4862 35.4779 77.4862 39.7395L77.4862 50.7512Z" fill="url(#paint1_angular_25_3122)"/>
<path d="M38.6626 100.634C36.3947 97.0547 35.0816 92.8108 35.0816 88.2602L35.0816 85.8841C35.0816 83.1555 36.1655 80.5385 38.095 78.6091L89.3383 27.3657C91.6063 30.9448 92.9194 35.1888 92.9194 39.7395L92.9194 42.1152C92.9195 44.8439 91.8355 47.4608 89.906 49.3903L38.6626 100.634Z" fill="#6B36FF"/>
<defs>
<radialGradient id="paint0_angular_25_3122" cx="0" cy="0" r="1" gradientUnits="userSpaceOnUse" gradientTransform="translate(64 69.3874) rotate(-46.5183) scale(42.0263)">
<stop stop-color="#3C12B3"/>
<stop offset="0.472083" stop-color="#6B36FF"/>
<stop offset="1" stop-color="#3C12B2"/>
</radialGradient>
<radialGradient id="paint1_angular_25_3122" cx="0" cy="0" r="1" gradientUnits="userSpaceOnUse" gradientTransform="translate(63.9997 58.6121) rotate(135.226) scale(40.7371 40.7371)">
<stop stop-color="#3C12B3"/>
<stop offset="0.463021" stop-color="#6B36FF"/>
<stop offset="1" stop-color="#6B36FF"/>
</radialGradient>
</defs>
</svg>
