<svg width="128" height="128" viewBox="0 0 128 128" fill="none" xmlns="http://www.w3.org/2000/svg">
<rect width="128" height="128" fill="#212128"/>
<path fill-rule="evenodd" clip-rule="evenodd" d="M35.0804 39.7395C35.0804 26.9547 45.4446 16.5906 58.2294 16.5906H69.7697C82.5545 16.5906 92.9187 26.9547 92.9187 39.7395L92.919 88.2602C92.919 101.045 82.5549 111.409 69.7701 111.409H58.2297C45.4449 111.409 35.0808 101.045 35.0808 88.2602L35.0804 39.7395ZM58.2294 32.0232C53.9678 32.0232 50.5131 35.4779 50.5131 39.7395L50.5134 88.2602C50.5134 92.5218 53.9681 95.9765 58.2297 95.9765H69.7701C74.0317 95.9765 77.4864 92.5218 77.4864 88.2602L77.486 39.7395C77.486 35.4779 74.0313 32.0232 69.7697 32.0232H58.2294Z" fill="#6B36FF"/>
<path d="M92.9184 39.7395C92.9184 35.1888 91.6053 30.9448 89.3373 27.3657L77.4694 39.2335C77.4803 39.4008 77.4858 39.5695 77.4858 39.7395L77.4861 88.2602C77.4861 92.5218 74.0314 95.9765 69.7698 95.9765H58.2294C53.9679 95.9765 50.5131 92.5218 50.5131 88.2602L50.5131 76.6443L35.347 91.7841C37.0443 102.896 46.6427 111.409 58.2294 111.409H69.7698C82.5546 111.409 92.9187 101.045 92.9187 88.2602L92.9184 39.7395Z" fill="url(#paint0_angular_25_3108)"/>
<path d="M77.4861 50.7512L92.5668 35.6965C90.6544 24.8392 81.1754 16.5906 69.7697 16.5906H58.2294C45.4446 16.5906 35.0804 26.9547 35.0804 39.7395L35.0808 88.2602C35.0808 92.8107 36.3939 97.0546 38.6617 100.634L50.5297 88.7657C50.5189 88.5986 50.5134 88.43 50.5134 88.2602L50.5131 39.7395C50.5131 35.4779 53.9678 32.0232 58.2294 32.0232H69.7697C74.0313 32.0232 77.486 35.4779 77.486 39.7395L77.4861 50.7512Z" fill="url(#paint1_angular_25_3108)"/>
<path d="M38.6624 100.634C36.3945 97.0547 35.0815 92.8108 35.0815 88.2602L35.0815 85.8841C35.0814 83.1555 36.1654 80.5385 38.0949 78.6091L89.3382 27.3657C91.6062 30.9448 92.9193 35.1888 92.9193 39.7395L92.9193 42.1152C92.9193 44.8439 91.8354 47.4608 89.9059 49.3903L38.6624 100.634Z" fill="#6B36FF"/>
<defs>
<radialGradient id="paint0_angular_25_3108" cx="0" cy="0" r="1" gradientUnits="userSpaceOnUse" gradientTransform="translate(63.9999 69.3874) rotate(-46.5183) scale(42.0263)">
<stop stop-color="#3C12B3"/>
<stop offset="0.472083" stop-color="#6B36FF"/>
<stop offset="1" stop-color="#3C12B2"/>
</radialGradient>
<radialGradient id="paint1_angular_25_3108" cx="0" cy="0" r="1" gradientUnits="userSpaceOnUse" gradientTransform="translate(63.9996 58.6121) rotate(135.226) scale(40.7371 40.7371)">
<stop stop-color="#3C12B3"/>
<stop offset="0.463021" stop-color="#6B36FF"/>
<stop offset="1" stop-color="#6B36FF"/>
</radialGradient>
</defs>
</svg>
